<svg width="16" height="16" viewBox="0 0 16 16" fill="none" xmlns="http://www.w3.org/2000/svg">
<path d="M1.5 3.5902C1.5 3.10442 1.84911 2.68891 2.32762 2.60517L10.3276 1.20517C10.9395 1.09808 11.5 1.56898 11.5 2.1902V13.8098C11.5 14.431 10.9395 14.9019 10.3276 14.7948L2.32762 13.3948C1.84911 13.3111 1.5 12.8956 1.5 12.4098V3.5902Z" fill="#BDBDBD"/>
<path d="M12.5 2H13.5C14.0523 2 14.5 2.44772 14.5 3V13C14.5 13.5523 14.0523 14 13.5 14H12.5V2Z" fill="#BDBDBD"/>
<path d="M7.30724 5.06975C7.69063 5.04359 8.07401 5.01744 8.4574 5C8.00586 5.94601 7.55005 6.89638 7.08999 7.84239C7.55431 8.81456 8.03142 9.77801 8.5 10.7458C8.09105 10.7197 7.68637 10.6935 7.27742 10.6673C6.98775 9.94367 6.63845 9.24615 6.43397 8.49196C6.20394 9.19384 5.87593 9.86084 5.61182 10.5496C5.24121 10.5453 4.87061 10.5278 4.5 10.5148C4.9345 9.64286 5.35623 8.76225 5.80351 7.89907C5.42439 7.00537 5.00266 6.12911 4.61076 5.24413C4.98136 5.22233 5.35623 5.20054 5.72684 5.17874C5.97817 5.85446 6.25506 6.52582 6.46379 7.21898C6.6853 6.47351 7.01757 5.78035 7.30724 5.06975Z" fill="white"/>
</svg>
