<svg width="8" height="14" viewBox="0 0 8 14" fill="none" xmlns="http://www.w3.org/2000/svg">
<path d="M4.5 13C4.5 13.2761 4.27614 13.5 4 13.5C3.72386 13.5 3.5 13.2761 3.5 13C3.5 12.7239 3.72386 12.5 4 12.5C4.27614 12.5 4.5 12.7239 4.5 13Z" fill="black" stroke="#3771F9"/>
<path d="M4 9.57143V7C4.59334 7 5.17336 6.82405 5.66671 6.49441C6.16006 6.16476 6.54457 5.69623 6.77164 5.14805C6.9987 4.59987 7.05811 3.99667 6.94236 3.41473C6.8266 2.83279 6.54088 2.29824 6.12132 1.87868C5.70176 1.45912 5.16721 1.1734 4.58527 1.05765C4.00333 0.94189 3.40013 1.0013 2.85195 1.22836C2.30377 1.45543 1.83524 1.83994 1.50559 2.33329C1.17595 2.82664 1 3.40666 1 4" stroke="#3771F9" stroke-width="1.5" stroke-linecap="round" stroke-linejoin="round"/>
</svg>
