<svg width="14" height="15" viewBox="0 0 14 15" fill="none" xmlns="http://www.w3.org/2000/svg">
<path d="M7.76165 0.992132C7.62114 0.691385 7.3242 0.5 6.9981 0.5C6.67199 0.5 6.37771 0.691385 6.23454 0.992132L4.5298 4.60931L0.722631 5.18893C0.404484 5.23814 0.139361 5.4678 0.041265 5.78222C-0.0568306 6.09664 0.0227063 6.44387 0.250712 6.67626L3.0133 9.49509L2.36109 13.4786C2.30807 13.8067 2.44063 14.1403 2.7031 14.3344C2.96557 14.5285 3.31288 14.5531 3.59922 14.3973L7.00075 12.5244L10.4023 14.3973C10.6886 14.5531 11.0359 14.5312 11.2984 14.3344C11.5609 14.1375 11.6934 13.8067 11.6404 13.4786L10.9855 9.49509L13.7481 6.67626C13.9761 6.44387 14.0583 6.09664 13.9576 5.78222C13.8568 5.4678 13.5944 5.23814 13.2762 5.18893L9.46639 4.60931L7.76165 0.992132Z" fill="#FFD700"/>
</svg>
