<svg width="16" height="16" viewBox="0 0 16 16" fill="none" xmlns="http://www.w3.org/2000/svg">
<path d="M7.00001 11.3334C9.39324 11.3334 11.3333 9.39332 11.3333 7.00008C11.3333 4.60685 9.39324 2.66675 7.00001 2.66675C4.60677 2.66675 2.66667 4.60685 2.66667 7.00008C2.66667 9.39332 4.60677 11.3334 7.00001 11.3334Z" stroke="#212121" stroke-linecap="round" stroke-linejoin="round"/>
<path d="M11.0202 10.3132L10.6667 9.95964L9.95955 10.6667L10.3131 11.0203L11.0202 10.3132ZM12.9798 13.687C13.175 13.8822 13.4916 13.8822 13.6869 13.687C13.8821 13.4917 13.8821 13.1751 13.6869 12.9799L12.9798 13.687ZM10.3131 11.0203L12.9798 13.687L13.6869 12.9799L11.0202 10.3132L10.3131 11.0203Z" fill="#212121"/>
</svg>
