<svg width="60" height="60" viewBox="0 0 60 60" fill="none" xmlns="http://www.w3.org/2000/svg">
<rect width="60" height="60" rx="10" fill="#FEF3EF"/>
<path d="M14 20C14 17.7938 15.7938 16 18 16H42C44.2062 16 46 17.7938 46 20V31.525C44.9375 30.575 43.5375 30 42 30H18C16.4625 30 15.0625 30.575 14 31.525V20ZM18 32H42C44.2062 32 46 33.7938 46 36V40C46 42.2062 44.2062 44 42 44H18C15.7938 44 14 42.2062 14 40V36C14 33.7938 15.7938 32 18 32ZM34 40C34.5304 40 35.0391 39.7893 35.4142 39.4142C35.7893 39.0391 36 38.5304 36 38C36 37.4696 35.7893 36.9609 35.4142 36.5858C35.0391 36.2107 34.5304 36 34 36C33.4696 36 32.9609 36.2107 32.5858 36.5858C32.2107 36.9609 32 37.4696 32 38C32 38.5304 32.2107 39.0391 32.5858 39.4142C32.9609 39.7893 33.4696 40 34 40ZM42 38C42 37.4696 41.7893 36.9609 41.4142 36.5858C41.0391 36.2107 40.5304 36 40 36C39.4696 36 38.9609 36.2107 38.5858 36.5858C38.2107 36.9609 38 37.4696 38 38C38 38.5304 38.2107 39.0391 38.5858 39.4142C38.9609 39.7893 39.4696 40 40 40C40.5304 40 41.0391 39.7893 41.4142 39.4142C41.7893 39.0391 42 38.5304 42 38Z" fill="#FF8C56"/>
</svg>
