<svg width="60" height="60" viewBox="0 0 60 60" fill="none" xmlns="http://www.w3.org/2000/svg">
<rect width="60" height="60" rx="10" fill="#F2EBFB"/>
<path d="M28.5312 14.3249C29.4625 13.8937 30.5375 13.8937 31.4688 14.3249L45.1312 20.6374C45.6625 20.8812 46 21.4124 46 21.9999C46 22.5874 45.6625 23.1187 45.1312 23.3624L31.4688 29.6749C30.5375 30.1062 29.4625 30.1062 28.5312 29.6749L14.8688 23.3624C14.3375 23.1124 14 22.5812 14 21.9999C14 21.4187 14.3375 20.8812 14.8688 20.6374L28.5312 14.3249ZM41.8062 27.0999L45.1312 28.6374C45.6625 28.8812 46 29.4124 46 29.9999C46 30.5874 45.6625 31.1187 45.1312 31.3624L31.4688 37.6749C30.5375 38.1062 29.4625 38.1062 28.5312 37.6749L14.8688 31.3624C14.3375 31.1124 14 30.5812 14 29.9999C14 29.4187 14.3375 28.8812 14.8688 28.6374L18.1937 27.0999L27.6938 31.4874C29.1563 32.1624 30.8437 32.1624 32.3062 31.4874L41.8062 27.0999ZM32.3062 39.4874L41.8062 35.0999L45.1312 36.6374C45.6625 36.8812 46 37.4124 46 37.9999C46 38.5874 45.6625 39.1187 45.1312 39.3624L31.4688 45.6749C30.5375 46.1062 29.4625 46.1062 28.5312 45.6749L14.8688 39.3624C14.3375 39.1124 14 38.5812 14 37.9999C14 37.4187 14.3375 36.8812 14.8688 36.6374L18.1937 35.0999L27.6938 39.4874C29.1563 40.1624 30.8437 40.1624 32.3062 39.4874Z" fill="#8760D3"/>
</svg>
