<svg width="60" height="60" viewBox="0 0 60 60" fill="none" xmlns="http://www.w3.org/2000/svg">
<rect width="60" height="60" rx="10" fill="#FFEFF2"/>
<g clip-path="url(#clip0_634_11339)">
<path d="M41.1684 17.7119H18.8324C18.2138 17.7119 17.7124 18.2134 17.7124 18.8319V41.1679C17.7124 41.7865 18.2138 42.2879 18.8324 42.2879H41.1684C41.787 42.2879 42.2884 41.7865 42.2884 41.1679V18.8319C42.2884 18.2134 41.787 17.7119 41.1684 17.7119Z" fill="#FD5081"/>
<path d="M40.6885 19.312H19.3125V40.688H40.6885V19.312Z" fill="#FFEFF2"/>
<path d="M38.6081 21.3918H21.3921V38.6078H38.6081V21.3918Z" fill="#FD5081"/>
<path d="M20.7198 14H19.5842V17.2H20.7198V14Z" fill="#FD5081"/>
<path d="M23.1821 14H22.0466V17.2H23.1821V14Z" fill="#FD5081"/>
<path d="M25.6448 14H24.5093V17.2H25.6448V14Z" fill="#FD5081"/>
<path d="M28.1058 14H26.9702V17.2H28.1058V14Z" fill="#FD5081"/>
<path d="M30.5666 14H29.4312V17.2H30.5666V14Z" fill="#FD5081"/>
<path d="M33.029 14H31.8936V17.2H33.029V14Z" fill="#FD5081"/>
<path d="M35.4918 14H34.3562V17.2H35.4918V14Z" fill="#FD5081"/>
<path d="M37.9542 14H36.8186V17.2H37.9542V14Z" fill="#FD5081"/>
<path d="M40.4166 14H39.281V17.2H40.4166V14Z" fill="#FD5081"/>
<path d="M17.2 39.2805H14V40.416H17.2V39.2805Z" fill="#FD5081"/>
<path d="M17.2 36.8184H14V37.9539H17.2V36.8184Z" fill="#FD5081"/>
<path d="M17.2 34.3564H14V35.4919H17.2V34.3564Z" fill="#FD5081"/>
<path d="M17.2 31.8943H14V33.0297H17.2V31.8943Z" fill="#FD5081"/>
<path d="M17.2 29.4324H14V30.5678H17.2V29.4324Z" fill="#FD5081"/>
<path d="M17.2 26.9705H14V28.106H17.2V26.9705Z" fill="#FD5081"/>
<path d="M17.2 24.5083H14V25.6437H17.2V24.5083Z" fill="#FD5081"/>
<path d="M17.2 22.0464H14V23.1819H17.2V22.0464Z" fill="#FD5081"/>
<path d="M17.2 19.5842H14V20.7198H17.2V19.5842Z" fill="#FD5081"/>
<path d="M40.4166 42.8H39.281V46H40.4166V42.8Z" fill="#FD5081"/>
<path d="M37.9541 42.8H36.8186V46H37.9541V42.8Z" fill="#FD5081"/>
<path d="M35.4918 42.8H34.3562V46H35.4918V42.8Z" fill="#FD5081"/>
<path d="M33.029 42.8H31.8936V46H33.029V42.8Z" fill="#FD5081"/>
<path d="M30.5667 42.8H29.4312V46H30.5667V42.8Z" fill="#FD5081"/>
<path d="M28.1058 42.8H26.9702V46H28.1058V42.8Z" fill="#FD5081"/>
<path d="M25.6448 42.8H24.5093V46H25.6448V42.8Z" fill="#FD5081"/>
<path d="M23.1821 42.8H22.0466V46H23.1821V42.8Z" fill="#FD5081"/>
<path d="M20.7198 42.8H19.5842V46H20.7198V42.8Z" fill="#FD5081"/>
<path d="M46 19.5842H42.8V20.7198H46V19.5842Z" fill="#FD5081"/>
<path d="M46 22.0464H42.8V23.1818H46V22.0464Z" fill="#FD5081"/>
<path d="M46 24.5083H42.8V25.6437H46V24.5083Z" fill="#FD5081"/>
<path d="M46 26.9705H42.8V28.106H46V26.9705Z" fill="#FD5081"/>
<path d="M46 29.4324H42.8V30.5679H46V29.4324Z" fill="#FD5081"/>
<path d="M46 31.8943H42.8V33.0297H46V31.8943Z" fill="#FD5081"/>
<path d="M46 34.3564H42.8V35.4919H46V34.3564Z" fill="#FD5081"/>
<path d="M46 36.8184H42.8V37.9539H46V36.8184Z" fill="#FD5081"/>
<path d="M46 39.2805H42.8V40.416H46V39.2805Z" fill="#FD5081"/>
</g>
<defs>
<clipPath id="clip0_634_11339">
<rect width="32" height="32" fill="white" transform="translate(14 14)"/>
</clipPath>
</defs>
</svg>
