<svg width="16" height="16" viewBox="0 0 16 16" fill="none" xmlns="http://www.w3.org/2000/svg">
<path d="M4.98755 6.2312H1.98755V3.2312" stroke="#BDBDBD" stroke-linecap="round" stroke-linejoin="round"/>
<path d="M11.8875 4.11253C11.3773 3.60154 10.7713 3.19615 10.1043 2.91956C9.43721 2.64298 8.72217 2.50061 8.00005 2.50061C7.27792 2.50061 6.56289 2.64298 5.89583 2.91956C5.22878 3.19615 4.6228 3.60154 4.11255 4.11253L1.98755 6.23128" stroke="#BDBDBD" stroke-linecap="round" stroke-linejoin="round"/>
<path d="M11.0125 9.7688H14.0125V12.7688" stroke="#BDBDBD" stroke-linecap="round" stroke-linejoin="round"/>
<path d="M4.11255 11.8875C4.62279 12.3985 5.22878 12.8039 5.89583 13.0805C6.56289 13.3571 7.27792 13.4995 8.00005 13.4995C8.72217 13.4995 9.43721 13.3571 10.1043 13.0805C10.7713 12.8039 11.3773 12.3985 11.8875 11.8875L14.0125 9.7688" stroke="#BDBDBD" stroke-linecap="round" stroke-linejoin="round"/>
</svg>
