<svg width="16" height="16" viewBox="0 0 16 16" fill="none" xmlns="http://www.w3.org/2000/svg">
<path d="M6.99996 11.3333C9.39319 11.3333 11.3333 9.39324 11.3333 7.00001C11.3333 4.60677 9.39319 2.66667 6.99996 2.66667C4.60673 2.66667 2.66663 4.60677 2.66663 7.00001C2.66663 9.39324 4.60673 11.3333 6.99996 11.3333Z" stroke="white" stroke-linecap="round" stroke-linejoin="round"/>
<path d="M11.0202 10.3131L10.6666 9.95956L9.95952 10.6667L10.3131 11.0202L11.0202 10.3131ZM12.9797 13.6869C13.175 13.8822 13.4916 13.8822 13.6868 13.6869C13.8821 13.4916 13.8821 13.175 13.6868 12.9798L12.9797 13.6869ZM10.3131 11.0202L12.9797 13.6869L13.6868 12.9798L11.0202 10.3131L10.3131 11.0202Z" fill="white"/>
</svg>
