<svg width="16" height="16" viewBox="0 0 16 16" fill="none" xmlns="http://www.w3.org/2000/svg">
<path d="M8.76165 1.49213C8.62114 1.19138 8.3242 1 7.9981 1C7.67199 1 7.37771 1.19138 7.23454 1.49213L5.5298 5.10931L1.72263 5.68893C1.40448 5.73814 1.13936 5.9678 1.04126 6.28222C0.943169 6.59664 1.02271 6.94387 1.25071 7.17626L4.0133 9.99509L3.36109 13.9786C3.30807 14.3067 3.44063 14.6403 3.7031 14.8344C3.96557 15.0285 4.31288 15.0531 4.59922 14.8973L8.00075 13.0244L11.4023 14.8973C11.6886 15.0531 12.0359 15.0312 12.2984 14.8344C12.5609 14.6375 12.6934 14.3067 12.6404 13.9786L11.9855 9.99509L14.7481 7.17626C14.9761 6.94387 15.0583 6.59664 14.9576 6.28222C14.8568 5.9678 14.5944 5.73814 14.2762 5.68893L10.4664 5.10931L8.76165 1.49213Z" fill="#FFD700"/>
</svg>
