<svg width="24" height="24" viewBox="0 0 24 24" fill="none" xmlns="http://www.w3.org/2000/svg">
<g clip-path="url(#clip0_98_3459)">
<path d="M8.69976 10.9002C9.13312 10.9002 9.56224 10.8148 9.96261 10.649C10.363 10.4832 10.7268 10.2401 11.0332 9.93365C11.3396 9.62721 11.5827 9.26343 11.7486 8.86305C11.9144 8.46268 11.9998 8.03356 11.9998 7.6002C11.9998 7.16683 11.9144 6.73771 11.7486 6.33734C11.5827 5.93697 11.3396 5.57318 11.0332 5.26674C10.7268 4.96031 10.363 4.71723 9.96261 4.55139C9.56224 4.38555 9.13312 4.3002 8.69976 4.3002C8.26639 4.3002 7.83728 4.38555 7.4369 4.55139C7.03653 4.71723 6.67274 4.96031 6.3663 5.26674C6.05987 5.57318 5.81679 5.93697 5.65095 6.33734C5.48511 6.73771 5.39976 7.16683 5.39976 7.6002C5.39976 8.03356 5.48511 8.46268 5.65095 8.86305C5.81679 9.26343 6.05987 9.62721 6.3663 9.93365C6.67274 10.2401 7.03653 10.4832 7.4369 10.649C7.83728 10.8148 8.26639 10.9002 8.69976 10.9002ZM2.09976 19.7002H14.1998C14.1998 20.1024 14.3063 20.4771 14.4954 20.8002H2.02069C1.45694 20.8002 0.999756 20.343 0.999756 19.7793C0.999756 16.3933 3.74288 13.6502 7.12882 13.6502H10.2707C11.7694 13.6502 13.1444 14.1899 14.2101 15.0836C14.2032 15.1558 14.1998 15.228 14.1998 15.3002V16.6408C13.2785 15.4893 11.8623 14.7502 10.2707 14.7502H7.12882C4.37882 14.7502 2.14444 16.9605 2.09976 19.7002ZM4.29976 7.6002C4.29976 6.43324 4.76333 5.31409 5.58849 4.48893C6.41365 3.66377 7.5328 3.2002 8.69976 3.2002C9.86671 3.2002 10.9859 3.66377 11.811 4.48893C12.6362 5.31409 13.0998 6.43324 13.0998 7.6002C13.0998 8.76715 12.6362 9.88631 11.811 10.7115C10.9859 11.5366 9.86671 12.0002 8.69976 12.0002C7.5328 12.0002 6.41365 11.5366 5.58849 10.7115C4.76333 9.88631 4.29976 8.76715 4.29976 7.6002ZM19.1498 10.9002C18.2388 10.9002 17.4998 11.6393 17.4998 12.5502V14.2002H20.7998V12.5502C20.7998 11.6393 20.0607 10.9002 19.1498 10.9002ZM16.3998 12.5502C16.3998 11.0308 17.6304 9.8002 19.1498 9.8002C20.6691 9.8002 21.8998 11.0308 21.8998 12.5502V14.2002C22.5082 14.2002 22.9998 14.6918 22.9998 15.3002V19.7002C22.9998 20.3086 22.5082 20.8002 21.8998 20.8002H16.3998C15.7913 20.8002 15.2998 20.3086 15.2998 19.7002V15.3002C15.2998 14.6918 15.7913 14.2002 16.3998 14.2002V12.5502ZM16.3998 15.3002V19.7002H21.8998V15.3002H16.3998Z" fill="#212121"/>
</g>
<defs>
<clipPath id="clip0_98_3459">
<rect width="24" height="24" fill="white"/>
</clipPath>
</defs>
</svg>
