<svg width="86" height="32" viewBox="0 0 86 32" fill="none" xmlns="http://www.w3.org/2000/svg">
<path d="M38.336 7.47999H41.744L45.056 19.744L48.728 7.47999H51.944L55.592 19.696L58.88 7.47999H62.168L57.224 25H53.984L50.312 12.64L46.64 25H43.328L38.336 7.47999Z" fill="#212121"/>
<path d="M66.0905 7.47999H69.3545V25H66.0905V7.47999Z" fill="#212121"/>
<path d="M79.8057 25.24C78.2217 25.24 76.8777 24.944 75.7737 24.352C74.6857 23.744 73.7497 22.992 72.9657 22.096L75.9417 19.744C76.3897 20.512 76.9417 21.104 77.5977 21.52C78.2537 21.92 78.9817 22.12 79.7817 22.12C80.2137 22.12 80.5897 22.056 80.9097 21.928C81.2457 21.8 81.5257 21.632 81.7497 21.424C81.9897 21.2 82.1657 20.944 82.2777 20.656C82.3897 20.368 82.4457 20.072 82.4457 19.768C82.4457 19.4 82.3417 19.088 82.1337 18.832C81.9257 18.576 81.6537 18.36 81.3177 18.184C80.9817 17.992 80.5897 17.824 80.1417 17.68C79.7097 17.536 79.2617 17.392 78.7977 17.248C78.2057 17.056 77.6137 16.848 77.0217 16.624C76.4297 16.4 75.8937 16.104 75.4137 15.736C74.9497 15.352 74.5657 14.888 74.2617 14.344C73.9737 13.784 73.8297 13.088 73.8297 12.256C73.8297 11.552 73.9737 10.896 74.2617 10.288C74.5497 9.67999 74.9497 9.15199 75.4617 8.70399C75.9897 8.23999 76.6057 7.87999 77.3097 7.62399C78.0137 7.36799 78.7897 7.23999 79.6377 7.23999C80.3417 7.23999 80.9737 7.30399 81.5337 7.43199C82.1097 7.55999 82.6297 7.73599 83.0937 7.95999C83.5737 8.18399 84.0057 8.45599 84.3897 8.77599C84.7897 9.07999 85.1657 9.41599 85.5177 9.78399L82.8298 11.824C82.0777 10.704 81.0217 10.144 79.6617 10.144C78.8617 10.144 78.2537 10.336 77.8377 10.72C77.4217 11.104 77.2137 11.576 77.2137 12.136C77.2137 12.488 77.3097 12.784 77.5017 13.024C77.6937 13.264 77.9497 13.48 78.2697 13.672C78.6057 13.848 78.9897 14.008 79.4217 14.152C79.8537 14.296 80.3097 14.448 80.7897 14.608C81.3817 14.8 81.9738 15.024 82.5658 15.28C83.1737 15.52 83.7177 15.84 84.1977 16.24C84.6937 16.624 85.0937 17.104 85.3977 17.68C85.7017 18.256 85.8537 18.96 85.8537 19.792C85.8537 20.48 85.7177 21.152 85.4457 21.808C85.1737 22.464 84.7817 23.048 84.2697 23.56C83.7577 24.056 83.1257 24.464 82.3737 24.784C81.6217 25.088 80.7657 25.24 79.8057 25.24Z" fill="#212121"/>
<circle cx="16" cy="16" r="16" fill="#3771F9"/>
<rect width="4" height="15" rx="2" transform="matrix(0.939693 -0.34202 0.338292 0.941041 6 9.45251)" fill="white"/>
<rect width="4" height="15" rx="2" transform="matrix(0.939693 -0.34202 0.338292 0.941041 14 9.45251)" fill="white"/>
<rect width="4" height="4" rx="2" transform="matrix(1 0 -0.00396493 0.999992 22 8.604)" fill="white"/>
</svg>
