<svg width="24" height="25" viewBox="0 0 24 25" fill="none" xmlns="http://www.w3.org/2000/svg">
<rect width="24" height="24" transform="translate(0 0.5)" fill="white"/>
<path d="M7.5 20.75H4.5C4.30109 20.75 4.11032 20.671 3.96967 20.5303C3.82902 20.3897 3.75 20.1989 3.75 20V5C3.75 4.80109 3.82902 4.61032 3.96967 4.46967C4.11032 4.32902 4.30109 4.25 4.5 4.25H7.5V20.75Z" fill="#E3F5E5"/>
<path d="M10.5 11H16.5" stroke="#1D6126" stroke-linecap="round" stroke-linejoin="round"/>
<path d="M10.5 14H16.5" stroke="#1D6126" stroke-linecap="round" stroke-linejoin="round"/>
<path d="M19.5 4.25H4.5C4.08579 4.25 3.75 4.58579 3.75 5V20C3.75 20.4142 4.08579 20.75 4.5 20.75H19.5C19.9142 20.75 20.25 20.4142 20.25 20V5C20.25 4.58579 19.9142 4.25 19.5 4.25Z" stroke="#1D6126" stroke-linecap="round" stroke-linejoin="round"/>
<path d="M7.5 4.25V20.75" stroke="#1D6126" stroke-linecap="round" stroke-linejoin="round"/>
</svg>
