<svg width="24" height="25" viewBox="0 0 24 25" fill="none" xmlns="http://www.w3.org/2000/svg">
<rect width="24" height="24" transform="translate(0 0.5)" fill="white"/>
<path d="M16.5 3.50002V12.5L13.5 10.25L10.5 12.5V3.50002H6.75002C6.4542 3.49878 6.16106 3.55613 5.88752 3.66876C5.61397 3.7814 5.36544 3.94708 5.15626 4.15626C4.94708 4.36544 4.7814 4.61397 4.66876 4.88752C4.55613 5.16106 4.49878 5.4542 4.50002 5.75002V20.75C4.49878 20.4542 4.55613 20.1611 4.66876 19.8875C4.7814 19.614 4.94708 19.3654 5.15626 19.1563C5.36544 18.9471 5.61397 18.7814 5.88752 18.6688C6.16106 18.5561 6.4542 18.4988 6.75002 18.5H19.5V3.50002H16.5Z" fill="#E8FAFE"/>
<path d="M4.5 20.75V21.5H18" stroke="#3FAFD5" stroke-linecap="round" stroke-linejoin="round"/>
<path d="M16.5 3.5V12.5L13.5 10.25L10.5 12.5V3.5" stroke="#3FAFD5" stroke-linecap="round" stroke-linejoin="round"/>
<path d="M4.50002 20.75C4.49878 20.4542 4.55613 20.1611 4.66876 19.8875C4.7814 19.614 4.94708 19.3654 5.15626 19.1563C5.36544 18.9471 5.61397 18.7814 5.88752 18.6688C6.16106 18.5561 6.4542 18.4988 6.75002 18.5H19.5V3.50002H6.75002C6.4542 3.49878 6.16106 3.55613 5.88752 3.66876C5.61397 3.7814 5.36544 3.94708 5.15626 4.15626C4.94708 4.36544 4.7814 4.61397 4.66876 4.88752C4.55613 5.16106 4.49878 5.4542 4.50002 5.75002V20.75Z" stroke="#3FAFD5" stroke-linecap="round" stroke-linejoin="round"/>
</svg>
