<svg width="24" height="25" viewBox="0 0 24 25" fill="none" xmlns="http://www.w3.org/2000/svg">
<rect width="24" height="24" transform="translate(0 0.5)" fill="white"/>
<path d="M3.10313 7.49365C3.03519 7.61033 2.9996 7.74301 3 7.87803V17.1218C3.00072 17.2553 3.03663 17.3863 3.10412 17.5015C3.1716 17.6167 3.26827 17.7121 3.38438 17.778L11.6344 22.4187C11.7456 22.4822 11.8719 22.5146 12 22.5124L12.0844 12.4999L3.10313 7.49365Z" fill="#FFEEEE"/>
<path d="M21 17.122V7.87824C20.9993 7.74472 20.9634 7.61375 20.8959 7.49853C20.8284 7.38331 20.7317 7.28793 20.6156 7.22199L12.3656 2.58137C12.2545 2.51719 12.1284 2.4834 12 2.4834C11.8716 2.4834 11.7455 2.51719 11.6344 2.58137L3.38437 7.22199C3.26827 7.28793 3.1716 7.38331 3.10411 7.49853C3.03663 7.61375 3.00072 7.74472 3 7.87824V17.122C3.00072 17.2555 3.03663 17.3865 3.10411 17.5017C3.1716 17.6169 3.26827 17.7123 3.38437 17.7782L11.6344 22.4189C11.7455 22.483 11.8716 22.5168 12 22.5168C12.1284 22.5168 12.2545 22.483 12.3656 22.4189L20.6156 17.7782C20.7317 17.7123 20.8284 17.6169 20.8959 17.5017C20.9634 17.3865 20.9993 17.2555 21 17.122V17.122Z" stroke="#FA7F7F" stroke-linecap="round" stroke-linejoin="round"/>
<path d="M20.8968 7.49365L12.0843 12.4999L3.10303 7.49365" stroke="#FA7F7F" stroke-linecap="round" stroke-linejoin="round"/>
<path d="M12.0844 12.5L12 22.5125" stroke="#FA7F7F" stroke-linecap="round" stroke-linejoin="round"/>
</svg>
