<svg width="14" height="14" viewBox="0 0 14 14" fill="none" xmlns="http://www.w3.org/2000/svg">
<path d="M9.62745 3.9484L3.63566 9.27465C3.43729 9.46604 3.33071 9.71679 3.33798 9.97499C3.34525 10.2332 3.46582 10.479 3.67472 10.6617C3.88362 10.8443 4.16485 10.9497 4.46019 10.9561C4.75553 10.9624 5.04235 10.8692 5.26128 10.6958L12.404 4.36343C12.8007 3.98064 13.0138 3.47914 12.9993 2.96275C12.9848 2.44636 12.7436 1.95464 12.3258 1.58938C11.908 1.22413 11.3456 1.01332 10.7549 1.00061C10.1642 0.987896 9.59056 1.17425 9.15271 1.52108L2.01003 7.85348C1.36332 8.41886 1 9.18567 1 9.98524C1 10.7848 1.36332 11.5516 2.01003 12.117C2.65675 12.6824 3.53388 13 4.44847 13C5.36306 13 6.24019 12.6824 6.8869 12.117L12.7924 6.96682" stroke="#9E9E9E" stroke-linecap="round" stroke-linejoin="round"/>
</svg>
