<svg width="10" height="11" viewBox="0 0 10 11" fill="none" xmlns="http://www.w3.org/2000/svg">
<path d="M6.97058 3.2113L2.47674 7.20599C2.32797 7.34953 2.24803 7.5376 2.25349 7.73124C2.25894 7.92489 2.34936 8.10928 2.50604 8.24625C2.66271 8.38322 2.87364 8.46228 3.09514 8.46704C3.31665 8.47181 3.53177 8.40193 3.69596 8.27187L9.05296 3.52257C9.35051 3.23548 9.51038 2.85936 9.49948 2.47206C9.48857 2.08477 9.30772 1.71598 8.99437 1.44204C8.68102 1.1681 8.25917 1.00999 7.81617 1.00046C7.37316 0.990922 6.94292 1.13069 6.61453 1.39081L1.25752 6.14011C0.77249 6.56414 0.5 7.13925 0.5 7.73893C0.5 8.3386 0.77249 8.91371 1.25752 9.33775C1.74256 9.76178 2.40041 10 3.08635 10C3.77229 10 4.43014 9.76178 4.91518 9.33775L9.34428 5.47511" stroke="#757575" stroke-width="0.818748" stroke-linecap="round" stroke-linejoin="round"/>
</svg>
