<svg width="14" height="14" viewBox="0 0 14 14" fill="none" xmlns="http://www.w3.org/2000/svg">
<path d="M7.30865 0.703782L7.30936 0.705291L9.01411 4.32246L9.12772 4.56353L9.39119 4.60362L13.1998 5.18305C13.1999 5.18308 13.2001 5.1831 13.2003 5.18313C13.3234 5.20237 13.4361 5.29341 13.4814 5.43479C13.5261 5.57407 13.4881 5.72734 13.3912 5.8261L13.391 5.82629L10.6285 8.64511L10.4511 8.82612L10.4922 9.07619L11.1468 13.0584C11.1468 13.0586 11.1469 13.0587 11.1469 13.0589C11.1704 13.2057 11.1101 13.3506 10.9984 13.4344C10.8955 13.5115 10.7596 13.5221 10.6421 13.4586C10.6419 13.4584 10.6416 13.4583 10.6413 13.4581L7.2419 11.5864L7.00075 11.4537L6.75959 11.5864L3.36019 13.4581C3.35992 13.4583 3.35964 13.4584 3.35937 13.4586C3.24473 13.5205 3.10696 13.5112 3.00041 13.4324L2.7031 13.8344L3.00041 13.4324C2.89295 13.3529 2.83073 13.2077 2.85461 13.0589C2.85464 13.0587 2.85466 13.0585 2.85469 13.0584L3.50673 9.07587L3.54764 8.82597L3.37039 8.64511L0.60781 5.82629L0.60762 5.8261C0.512928 5.72958 0.473479 5.57568 0.518574 5.43114C0.560912 5.29544 0.672846 5.20278 0.798554 5.18313C0.798725 5.1831 0.798895 5.18308 0.799066 5.18305L4.60505 4.60361L4.86849 4.5635L4.98209 4.32246L6.686 0.707042C6.68611 0.706817 6.68621 0.706591 6.68632 0.706366C6.75023 0.572731 6.87322 0.5 6.9981 0.5C7.12556 0.5 7.24843 0.574887 7.30865 0.703782Z" stroke="#BDBDBD"/>
</svg>
